<svg width="110" height="110" viewBox="0 0 110 110" fill="none" xmlns="http://www.w3.org/2000/svg">
<circle cx="55" cy="55" r="54" stroke="white" stroke-width="2"/>
<path d="M35.4961 55.0055L45.2226 45.2785C45.4904 45.0113 45.6378 44.6541 45.6378 44.2732C45.6378 43.8921 45.4904 43.5351 45.2226 43.2674L44.3703 42.4156C44.1029 42.1475 43.7455 42 43.3646 42C42.9836 42 42.6266 42.1475 42.359 42.4156L30.778 53.9964C30.5094 54.2648 30.3622 54.6235 30.3633 55.0049C30.3622 55.3879 30.5091 55.7462 30.778 56.0148L42.3482 67.5844C42.6158 67.8525 42.9729 68 43.354 68C43.7349 68 44.0919 67.8525 44.3597 67.5844L45.2118 66.7326C45.7663 66.1781 45.7663 65.2755 45.2118 64.7213L35.4961 55.0055Z" fill="white"/>
<path d="M74.5039 55.0055L64.7774 45.2785C64.5096 45.0113 64.3622 44.6541 64.3622 44.2732C64.3622 43.8921 64.5096 43.5351 64.7774 43.2674L65.6297 42.4156C65.8971 42.1475 66.2545 42 66.6354 42C67.0164 42 67.3734 42.1475 67.641 42.4156L79.222 53.9964C79.4906 54.2648 79.6378 54.6235 79.6367 55.0049C79.6378 55.3879 79.4909 55.7462 79.222 56.0148L67.6518 67.5844C67.3842 67.8525 67.0271 68 66.646 68C66.2651 68 65.9081 67.8525 65.6403 67.5844L64.7882 66.7326C64.2337 66.1781 64.2337 65.2755 64.7882 64.7213L74.5039 55.0055Z" fill="white"/>
</svg>
